<svg width="150" height="53" viewBox="0 0 150 53" fill="none" xmlns="http://www.w3.org/2000/svg">
<rect width="150" height="53" rx="26.5" fill="#0088FF"/>
<path d="M68.8052 31.2949V21.1289C68.8052 20.7627 68.8955 20.4941 69.0762 20.3232C69.2568 20.1475 69.4717 20.0596 69.7207 20.0596C69.9404 20.0596 70.165 20.123 70.3945 20.25L78.9272 25.2378C79.23 25.4136 79.4399 25.5723 79.5571 25.7139C79.6792 25.8506 79.7402 26.0166 79.7402 26.2119C79.7402 26.4023 79.6792 26.5684 79.5571 26.71C79.4399 26.8516 79.23 27.0103 78.9272 27.186L70.3945 32.1738C70.165 32.3008 69.9404 32.3643 69.7207 32.3643C69.4717 32.3643 69.2568 32.2764 69.0762 32.1006C68.8955 31.9248 68.8052 31.6562 68.8052 31.2949Z" fill="white"/>
</svg>
